<?xml version="1.0" standalone="no"?>
<!DOCTYPE svg PUBLIC "-//W3C//DTD SVG 20010904//EN"
 "http://www.w3.org/TR/2001/REC-SVG-20010904/DTD/svg10.dtd">
<svg version="1.0" xmlns="http://www.w3.org/2000/svg"
 width="248.000000pt" height="204.000000pt" viewBox="0 0 248.000000 204.000000"
 preserveAspectRatio="xMidYMid meet">

<g transform="translate(0.000000,204.000000) scale(0.100000,-0.100000)"
fill="#000000" stroke="none">
<path d="M1720 2029 c-14 -6 -46 -28 -72 -50 l-47 -40 -37 41 c-20 22 -44 40
-54 40 -26 0 -123 -108 -152 -170 -45 -95 -45 -97 5 -121 l45 -22 -26 -39 -25
-39 -26 48 c-14 26 -33 48 -41 48 -17 0 -112 -157 -139 -230 -17 -44 -23 -50
-56 -57 -58 -12 -165 -73 -220 -125 -47 -44 -53 -47 -97 -44 -28 2 -48 -1 -48
-7 0 -6 -20 -31 -44 -55 -35 -36 -43 -50 -39 -71 5 -24 3 -26 -18 -22 -90 21
-119 26 -161 26 -26 0 -49 -4 -52 -8 -3 -5 5 -38 17 -75 21 -62 24 -67 52 -67
l30 0 -30 -24 -29 -24 23 -50 c25 -53 70 -102 132 -143 20 -13 63 -54 96 -92
44 -50 60 -75 60 -97 l0 -30 -94 0 -95 0 3 -35 c3 -33 0 -37 -40 -57 -52 -26
-59 -40 -37 -84 14 -30 19 -33 36 -24 17 9 20 8 21 -12 3 -98 13 -105 147 -94
l112 8 0 29 c0 16 -6 31 -12 33 -7 2 -40 11 -73 21 l-59 17 34 19 c19 10 72
28 118 40 97 26 106 37 100 116 -5 63 -10 62 106 18 109 -41 110 -47 4 -126
-75 -56 -86 -69 -72 -77 14 -8 15 -14 5 -42 -6 -18 -11 -50 -11 -72 l0 -39 53
4 c41 3 52 7 51 20 -2 22 18 22 32 0 10 -16 27 -18 153 -15 131 3 141 4 141
22 0 25 -34 47 -85 55 -86 14 -103 23 -97 53 2 15 24 47 47 72 73 77 76 99 27
153 -21 22 -23 27 -9 27 14 0 17 10 17 48 0 48 0 48 41 59 41 11 41 11 55 -23
14 -34 37 -44 50 -23 5 8 13 4 24 -11 14 -19 20 -21 38 -11 32 17 37 14 50
-35 11 -41 11 -49 -4 -65 -15 -16 -15 -23 -5 -43 19 -35 54 -48 80 -30 16 12
29 13 58 5 53 -15 67 -14 93 9 13 11 31 20 40 20 20 0 50 31 50 52 0 8 16 32
36 52 31 32 35 42 30 69 -3 17 -13 38 -21 47 -14 15 -13 19 3 33 10 10 21 14
25 11 3 -4 21 3 40 15 19 11 42 21 51 21 48 0 195 99 276 186 86 92 161 223
176 307 6 36 4 41 -41 83 -38 35 -55 44 -84 44 -61 0 -152 -51 -242 -137 -122
-117 -201 -238 -224 -343 -9 -41 -32 -61 -61 -54 -12 3 -26 -1 -33 -10 -28
-33 -141 -2 -141 38 0 7 -34 47 -76 88 -50 50 -75 82 -72 95 2 13 25 25 78 43
41 14 80 28 87 33 16 10 26 -8 18 -33 -9 -28 9 -25 48 10 l34 29 39 -19 c86
-44 162 -13 171 71 6 56 -9 89 -77 164 -31 34 -47 60 -44 70 4 8 8 15 10 15 2
0 38 -22 80 -50 82 -53 104 -60 104 -32 0 15 -39 88 -72 133 -9 13 -3 44 26
144 47 166 47 180 -1 196 -61 20 -79 37 -114 106 -46 92 -98 120 -169 92z
m110 -94 c19 -19 31 -35 28 -35 -15 0 81 -90 106 -100 31 -11 31 -17 5 -112
-11 -42 -15 -44 -44 -22 -19 15 -19 16 -1 29 18 13 18 14 -2 12 -11 0 -18 -5
-16 -9 11 -17 -14 -7 -32 13 -10 12 -29 25 -42 30 -14 5 -20 14 -16 21 4 7 3
8 -4 4 -20 -12 -34 4 -20 22 11 15 11 15 -3 4 -17 -13 -53 -6 -44 8 3 5 0 12
-6 16 -8 5 -9 3 -4 -6 5 -8 3 -11 -6 -8 -8 3 -13 12 -13 21 1 9 -3 14 -8 11
-12 -7 -38 27 -31 40 4 5 1 6 -4 3 -6 -4 -18 2 -27 12 -17 18 -15 21 41 59 67
46 88 44 143 -13z m-271 -21 c28 -31 48 -61 44 -67 -3 -5 -1 -7 5 -4 5 4 29
-16 53 -44 41 -49 42 -52 24 -65 -10 -8 -14 -14 -8 -14 7 0 15 5 18 10 3 6 9
10 13 10 11 0 147 -163 144 -172 -1 -5 2 -7 7 -4 12 8 34 -21 26 -34 -4 -6 -1
-9 6 -8 11 3 101 -103 94 -110 -1 -2 -28 13 -60 33 -36 24 -55 42 -51 50 3 8
1 17 -5 20 -5 4 -9 3 -8 -2 4 -20 -3 -22 -26 -7 -14 9 -23 20 -20 24 3 5 0 12
-6 16 -8 4 -9 3 -5 -4 10 -16 0 -15 -29 4 -14 9 -23 20 -20 24 3 5 0 12 -6 16
-8 4 -9 3 -5 -4 11 -19 2 -15 -88 35 -47 25 -83 50 -80 54 3 5 -1 7 -8 4 -20
-8 -141 67 -126 78 9 6 7 7 -5 3 -22 -7 -80 30 -71 45 3 5 10 6 16 3 7 -4 8
-2 4 5 -10 16 53 113 68 104 6 -3 8 -2 3 2 -7 8 30 55 43 55 4 0 30 -25 59
-56z m316 -247 c58 -44 69 -57 67 -77 -6 -37 -11 -38 -40 -3 -15 17 -47 54
-70 82 -24 28 -40 51 -35 51 4 0 40 -24 78 -53z m-495 -214 c40 -102 73 -225
84 -318 l6 -50 -50 53 c-27 29 -50 61 -50 71 0 10 -16 50 -35 89 -33 64 -76
114 -133 152 l-22 15 26 55 c14 30 37 74 52 97 l27 43 27 -53 c15 -28 45 -98
68 -154z m122 152 c9 -20 9 -34 -1 -61 -12 -33 -11 -38 10 -60 28 -29 39 -30
39 -4 0 34 29 80 56 90 41 16 46 12 22 -20 -12 -16 -28 -30 -36 -30 -11 0 -12
-3 -3 -14 6 -8 11 -18 10 -22 -11 -62 78 -137 162 -136 20 0 46 6 58 13 25 16
49 -3 93 -70 37 -60 35 -126 -6 -153 -49 -33 -188 58 -171 112 17 55 -53 85
-130 55 -66 -25 -102 -85 -52 -85 14 0 32 -12 46 -31 13 -17 21 -32 19 -34 -1
-1 -27 -9 -56 -18 -59 -17 -56 -18 -67 48 -3 22 -26 102 -51 178 -24 77 -44
141 -44 143 0 2 7 1 15 -3 10 -3 15 0 13 8 -2 8 4 13 13 13 10 -1 23 10 30 23
25 47 -22 75 -61 37 -13 -14 -12 -15 13 -9 31 8 38 -10 8 -20 -11 -3 -22 -13
-26 -23 -5 -14 -7 -14 -15 -2 -19 29 -11 65 18 82 41 26 80 23 94 -7z m255
-95 c73 -42 72 -50 -5 -23 -37 12 -75 23 -84 23 -18 0 -23 11 -11 23 14 14 50
6 100 -23z m3 -59 c30 -14 55 -33 55 -41 0 -22 -51 -43 -85 -35 -42 9 -90 57
-90 90 0 25 2 26 33 20 17 -4 57 -19 87 -34z m-551 -72 c31 -24 87 -98 95
-126 6 -20 5 -21 -22 -11 -30 12 -82 4 -82 -12 0 -6 7 -10 15 -10 26 0 93 -38
136 -77 22 -20 68 -72 103 -117 35 -45 82 -99 105 -120 45 -44 44 -51 -12
-116 -37 -42 -119 -111 -128 -108 -14 6 -188 248 -212 294 -14 27 -30 69 -36
92 -7 23 -16 40 -21 37 -13 -8 -13 -57 0 -91 6 -15 9 -28 8 -30 -2 -2 -23 2
-47 7 -24 5 -46 7 -50 3 -11 -11 53 -54 91 -60 38 -6 68 -37 68 -69 0 -36
-100 -10 -192 49 -68 43 -75 52 -54 75 44 48 -2 40 -52 -9 -58 -59 -102 -160
-69 -160 6 0 23 -9 37 -20 l25 -20 -37 0 c-20 0 -40 -4 -43 -10 -7 -11 17 -17
96 -24 67 -5 115 -27 124 -57 5 -14 12 -18 23 -14 41 17 52 17 52 1 0 -20 39
-36 86 -36 27 0 34 -4 34 -20 0 -18 -2 -18 -40 -5 -23 8 -91 21 -153 30 -196
27 -238 37 -306 71 -122 62 -243 178 -228 218 3 8 24 24 47 36 22 11 40 25 40
30 0 5 -27 14 -59 21 -59 11 -70 22 -71 67 0 15 48 16 124 1 48 -10 59 -17 73
-43 9 -17 29 -50 44 -73 16 -23 29 -49 29 -57 0 -30 30 -16 58 26 15 23 48 63
74 90 50 50 49 69 -2 43 -30 -15 -30 -15 -50 17 -26 43 -25 56 8 109 59 91
177 178 269 197 45 10 70 5 102 -19z m1151 -23 c0 -3 -22 -12 -49 -21 -27 -9
-55 -23 -62 -31 -10 -12 -9 -13 7 -8 11 3 4 -7 -16 -24 -27 -24 -36 -27 -40
-16 -4 11 -14 6 -40 -21 -19 -19 -28 -35 -21 -35 16 0 8 -23 -22 -60 -25 -33
-37 -37 -37 -13 0 16 -1 16 -17 -1 -13 -13 -15 -20 -5 -23 19 -7 16 -15 -43
-108 -30 -49 -55 -99 -55 -112 0 -17 -6 -23 -21 -23 -19 0 -21 4 -15 38 18
102 159 301 274 386 67 48 162 91 162 72z m75 -60 c17 -12 17 -17 5 -60 -13
-47 -70 -151 -118 -213 -28 -37 -62 -44 -62 -13 0 29 -10 24 -54 -26 -25 -29
-33 -44 -23 -44 22 0 28 -25 10 -49 -18 -27 -60 -25 -55 2 4 24 -3 22 -46 -13
-20 -16 -54 -36 -75 -45 -34 -14 -37 -18 -25 -33 9 -12 6 -11 -13 3 l-26 20
60 29 c112 54 277 232 354 384 20 39 39 72 43 72 3 0 15 -6 25 -14z m-91 -38
c-41 -81 -142 -214 -212 -279 -76 -71 -132 -109 -132 -89 0 41 131 230 219
317 47 46 129 99 139 89 2 -2 -4 -19 -14 -38z m-1566 -25 c-38 -10 -31 -86 13
-159 24 -39 24 -56 1 -78 -18 -15 -20 -15 -34 1 -24 28 -68 120 -68 143 0 30
60 100 85 99 17 -1 17 -2 3 -6z m185 -323 c14 -11 50 -33 80 -49 l55 -29 -35
-33 -35 -33 -43 23 c-24 12 -55 35 -70 51 -27 28 -27 28 -9 59 22 37 24 37 57
11z m967 -110 c0 -4 -6 -13 -13 -19 -18 -14 -52 21 -43 44 5 14 8 14 31 -1 14
-9 25 -20 25 -24z m-667 23 c4 -3 -7 -30 -23 -60 -36 -62 -30 -68 52 -61 30 3
45 2 36 -3 -9 -5 -48 -12 -87 -15 l-72 -7 11 29 c17 43 62 124 70 124 4 0 10
-3 13 -7z m387 -9 c0 -25 -59 -100 -108 -139 -73 -57 -87 -43 -21 20 22 22 56
61 76 88 36 49 53 59 53 31z m-470 -19 c0 -25 -46 -65 -75 -65 -34 0 -33 32 3
59 33 24 72 28 72 6z m636 1 c7 -18 -21 -72 -41 -80 -9 -3 -27 2 -41 10 -28
19 -43 11 -28 -14 18 -28 105 -76 141 -76 26 -1 33 -5 33 -22 0 -12 -11 -26
-24 -34 -21 -11 -30 -10 -65 7 -22 11 -43 18 -45 15 -11 -10 15 -40 46 -52 43
-17 41 -15 28 -39 -14 -26 -35 -26 -85 -1 -47 24 -45 24 -45 6 0 -8 10 -22 22
-30 39 -27 -6 -31 -59 -5 -45 23 -49 28 -70 93 l-23 69 57 61 c77 83 81 86
124 86 21 0 41 5 44 10 9 14 25 12 31 -4z m-507 -35 c9 -16 6 -19 -18 -23 -27
-4 -28 -3 -18 19 12 28 23 29 36 4z"/>
<path d="M1656 1902 c-3 -5 1 -9 9 -9 8 0 12 4 9 9 -3 4 -7 8 -9 8 -2 0 -6 -4
-9 -8z"/>
<path d="M1866 1818 c3 -5 10 -6 15 -3 13 9 11 12 -6 12 -8 0 -12 -4 -9 -9z"/>
<path d="M1757 1414 c-4 -4 -4 -10 -1 -15 6 -10 34 0 34 12 0 10 -24 12 -33 3z"/>
</g>
</svg>
